<?xml version="1.0" encoding="UTF-8"?>
<!DOCTYPE svg PUBLIC "-//W3C//DTD SVG 1.1//EN" "http://www.w3.org/Graphics/SVG/1.1/DTD/svg11.dtd">
<!-- Creator: CorelDRAW 2020 (64-Bit Evaluation Version) -->
<svg xmlns="http://www.w3.org/2000/svg" xml:space="preserve" width="1.07689in" height="0.355378in" version="1.1" style="shape-rendering:geometricPrecision; text-rendering:geometricPrecision; image-rendering:optimizeQuality; fill-rule:evenodd; clip-rule:evenodd"
viewBox="0 0 184.43 60.86"
 xmlns:xlink="http://www.w3.org/1999/xlink"
 xmlns:xodm="http://www.corel.com/coreldraw/odm/2003">
 <defs>
  <style type="text/css">
   <![CDATA[
    .fil0 {fill:#040000;fill-rule:nonzero}
    .fil1 {fill:#BB1B21;fill-rule:nonzero}
   ]]>
  </style>
 </defs>
 <g id="Layer_x0020_1">
  <metadata id="CorelCorpID_0Corel-Layer"/>
  <g id="crrc.svg">
   <g>
    <path class="fil0" d="M79.11 42.14l0 4.88c0,5.35 2.82,9.54 13.01,9.54l10.3 0 0 -4.41 -10.05 0c-4.45,0 -6.58,-2.71 -6.58,-5.46l0 -4.26c0,-2.71 2.1,-5.46 6.58,-5.46l10.05 0 0 -4.37 -10.3 0c-10.19,0 -13.01,4.19 -13.01,9.54l0 0zm95.27 -5.13l10.05 0 0 -4.41 -10.3 0c-10.16,0 -13.01,4.19 -13.01,9.54l0 4.88c0,5.35 2.82,9.54 13.01,9.54l10.3 0 0 -4.41 -10.05 0c-4.45,0 -6.58,-2.71 -6.58,-5.46l0 -4.26c0,-2.67 2.1,-5.42 6.58,-5.42l0 0zm-43.98 4.77l0 -2.1c0,-3.65 -1.55,-7.05 -10.7,-7.05l-13.91 0 0 23.96 6.61 0 0 -19.55 7.26 0c3.69,0 4.05,1.92 4.05,3.25l0 1.12c0,1.01 -0.32,3 -4.05,3l-3.98 0 0 1.63 6.98 10.55 8.06 0 -5.78 -8.75c4.12,-0.61 5.46,-3.04 5.46,-6.07zm27.97 0l0 -2.1c0,-3.65 -1.55,-7.05 -10.7,-7.05l-13.91 0 0 23.96 6.61 0 0 -19.55 7.26 0c3.69,0 4.05,1.92 4.05,3.25l0 1.12c0,1.01 -0.32,3 -4.05,3l-3.98 0 0 1.63 6.98 10.55 8.06 0 -5.78 -8.75c4.12,-0.61 5.46,-3.04 5.46,-6.07z"/>
   </g>
   <g>
    <path class="fil1" d="M16.44 26.78c-0,0 -0.01,0 -0.01,0 -0.67,0 -1.22,0.55 -1.22,1.22 0,0 0,0.01 0,0.01l0 4.88c0,0.69 0.54,1.23 1.23,1.23l9.72 0 0 -7.34 -9.72 0zm27.97 0c0.69,0 1.23,0.54 1.23,1.23l0 4.88c0,0.69 -0.54,1.23 -1.23,1.23l-9.72 0 0 -7.34 9.72 0z"/>
    <path class="fil1" d="M8.53 24.32c0,-1.66 1.37,-3 3.04,-3l14.6 0 0 -6.72 -17.02 0c-4.73,0 -8.53,3.83 -8.53,8.53l0 14.6c0,4.7 3.8,8.53 8.53,8.53l17.02 0 0 -6.69 -14.6 0c-1.66,0 -3.04,-1.37 -3.04,-3.04l0 -12.22zm43.8 0c0,-1.66 -1.37,-3 -3.04,-3l-14.6 0 0 -6.72 17.02 0c4.7,0 8.49,3.8 8.49,8.53l0 14.6c0,4.7 -3.8,8.53 -8.53,8.53l-16.99 0 0 -6.69 14.6 0c1.66,0 3.04,-1.37 3.04,-3.04l0 -12.22 0 0zm-17.64 -20.06l0 -4.26 -8.53 0 0 4.26 -26.17 0 0 6.69 60.86 0 0 -6.69 -26.17 0zm0 52.3l0 4.3 -8.53 0 0 -4.3 -26.17 0 0 -6.65 60.86 0 0 6.65 -26.17 0z"/>
   </g>
   <g>
    <path class="fil0" d="M98.41 7.7l-6.14 0 0 -3.51 -3.94 0 0 3.51 -9.22 0 0 13.08 9.22 0 0 5.78 3.94 0 0 -5.78 9.22 0 0 -10.01c0,-1.84 -1.45,-3.07 -3.07,-3.07zm-10.08 10.34l-5.28 0 0 -7.66 5.28 0 0 7.66zm9.22 0l-5.28 0 0 -7.66 4.01 0c0.72,0 1.23,0.61 1.23,1.23 0.04,2.06 0.04,6.43 0.04,6.43zm56.09 -10.34l-6.14 0 0 -3.51 -3.94 0 0 3.51 -9.22 0 0 13.08 9.22 0 0 5.78 3.94 0 0 -5.78 9.22 0 0 -10.01c0,-1.84 -1.41,-3.07 -3.07,-3.07zm-10.08 10.34l-5.28 0 0 -7.66 5.28 0 0 7.66zm9.22 0l-5.28 0 0 -7.66 4.01 0c0.72,0 1.23,0.61 1.23,1.23 0.04,2.06 0.04,6.43 0.04,6.43zm-41.45 3.87l0 -2.31 4.84 0 0 -3.43 -4.19 0 0 -2.28 4.19 0 0 -2.71 -4.84 0 0 -2.35 13.19 0 0 2.35 -4.81 0 0 2.71 4.16 0 0 2.28 -4.16 0 0 3.43 2.02 0 0 -1.66 2.67 0 0.22 3.98 -13.3 0z"/>
    <path class="fil0" d="M126.42 4.55l-19.77 0 0 21.65 22.52 0 0 -18.9c0,-1.63 -1.26,-2.75 -2.75,-2.75l0 0zm-0.8 19.15l-15.43 0 0 -16.62 14.35 0c0.65,0 1.08,0.51 1.08,1.08l0 15.54 -0 0zm49.95 -3.72l0 -3.04 8.2 0 0 -2.75 -8.2 0 0 -3.11 -3.87 0 0 3.11 -5.1 0 3.11 -5.2 14.31 0 0 -2.78 -12.69 0 1.19 -2.02 -4.05 0 -1.19 2.02 -5.02 0 0 2.78 3.36 0 -2.6 4.41c-0.36,0.58 -0.47,1.05 -0.47,1.66l0 1.88 9.14 0 0 3.04 -9.83 0 0 2.78 9.83 0 0 3.76 3.87 0 0 -3.76 8.82 0 0 -2.75 -8.82 0 0 -0.04z"/>
   </g>
  </g>
 </g>
</svg>
