<?xml version="1.0" encoding="UTF-8"?>
<!DOCTYPE svg PUBLIC "-//W3C//DTD SVG 1.1//EN" "http://www.w3.org/Graphics/SVG/1.1/DTD/svg11.dtd">
<!-- Creator: CorelDRAW 2020 (64-Bit Evaluation Version) -->
<svg xmlns="http://www.w3.org/2000/svg" xml:space="preserve" width="0.928587in" height="0.757091in" version="1.1" style="shape-rendering:geometricPrecision; text-rendering:geometricPrecision; image-rendering:optimizeQuality; fill-rule:evenodd; clip-rule:evenodd"
viewBox="0 0 80.2 65.39"
 xmlns:xlink="http://www.w3.org/1999/xlink"
 xmlns:xodm="http://www.corel.com/coreldraw/odm/2003">
 <defs>
  <style type="text/css">
   <![CDATA[
    .fil0 {fill:#3A94B9}
    .fil1 {fill:#3A94B9;fill-rule:nonzero}
   ]]>
  </style>
 </defs>
 <g id="Layer_x0020_1">
  <metadata id="CorelCorpID_0Corel-Layer"/>
  <g id="_1690954754848">
   <polygon class="fil0" points="24.64,51.1 25.42,51.1 25.42,21.94 24.64,21.94 "/>
   <polygon class="fil0" points="29.39,5.9 30.17,5.9 30.17,45.04 29.39,45.04 "/>
   <polygon class="fil0" points="34.89,13.05 35.67,12.88 35.67,45.04 34.89,45.04 "/>
   <polygon class="fil0" points="49.14,14.81 49.92,14.81 49.92,56.42 49.14,56.42 "/>
   <polygon class="fil0" points="54.55,0.66 55.33,0.66 55.33,48.42 54.55,48.42 "/>
   <polygon class="fil0" points="38.57,36.69 39.35,36.69 39.35,50.49 38.57,50.49 "/>
   <polygon class="fil0" points="29.39,45.04 29.39,44.26 35.67,44.26 35.67,45.04 "/>
   <polygon class="fil0" points="38.57,37.39 38.57,36.61 60.61,36.61 60.61,37.39 "/>
   <polygon class="fil0" points="34.89,14.02 34.89,13.05 55.33,0 55.33,0.89 "/>
   <polygon class="fil0" points="49.92,15.53 49.92,14.57 29.39,5.19 29.39,6.08 "/>
   <polygon class="fil0" points="24.64,22.81 24.64,21.84 39.67,15.85 39.67,16.74 "/>
   <polygon class="fil0" points="38.89,19.8 40.81,19.8 40.81,21.7 38.89,21.7 "/>
   <polygon class="fil0" points="41.42,19.8 43.34,19.8 43.34,21.7 41.42,21.7 "/>
   <polygon class="fil0" points="43.95,19.8 45.87,19.8 45.87,21.7 43.95,21.7 "/>
   <polygon class="fil0" points="38.89,22.31 40.81,22.31 40.81,24.21 38.89,24.21 "/>
   <polygon class="fil0" points="41.42,22.31 43.34,22.31 43.34,24.21 41.42,24.21 "/>
   <polygon class="fil0" points="43.95,22.31 45.87,22.31 45.87,24.21 43.95,24.21 "/>
   <polygon class="fil0" points="38.89,24.81 40.81,24.81 40.81,26.71 38.89,26.71 "/>
   <polygon class="fil0" points="41.42,24.81 43.34,24.81 43.34,26.71 41.42,26.71 "/>
   <polygon class="fil0" points="43.95,24.81 45.87,24.81 45.87,26.71 43.95,26.71 "/>
   <polygon class="fil0" points="38.89,27.42 40.81,27.42 40.81,29.32 38.89,29.32 "/>
   <polygon class="fil0" points="41.42,27.42 43.34,27.42 43.34,29.32 41.42,29.32 "/>
   <polygon class="fil0" points="38.89,30.03 40.81,30.03 40.81,31.93 38.89,31.93 "/>
   <path class="fil1" d="M4.71 64.87c0,0.07 -0.01,0.13 -0.04,0.19 -0.02,0.05 -0.06,0.1 -0.1,0.14 -0.04,0.04 -0.09,0.06 -0.14,0.08 -0.06,0.02 -0.11,0.02 -0.17,0.02l-0.5 0c-0.1,0 -0.19,-0.01 -0.27,-0.03 -0.07,-0.02 -0.14,-0.06 -0.21,-0.12 -0.06,-0.06 -0.13,-0.13 -0.18,-0.23 -0.06,-0.09 -0.13,-0.22 -0.2,-0.37l-1.42 -2.73c-0.08,-0.16 -0.17,-0.34 -0.25,-0.53 -0.09,-0.19 -0.16,-0.37 -0.23,-0.55l-0.01 0c0.01,0.22 0.02,0.43 0.03,0.65 0.01,0.21 0.01,0.44 0.01,0.67l0 3.06c0,0.03 -0.01,0.06 -0.02,0.08 -0.02,0.02 -0.04,0.04 -0.08,0.06 -0.04,0.02 -0.09,0.03 -0.16,0.04 -0.07,0.01 -0.16,0.01 -0.26,0.01 -0.1,0 -0.19,-0 -0.26,-0.01 -0.07,-0.01 -0.12,-0.02 -0.16,-0.04 -0.04,-0.02 -0.07,-0.04 -0.08,-0.06 -0.01,-0.02 -0.02,-0.05 -0.02,-0.08l0 -5.26c0,-0.14 0.04,-0.25 0.12,-0.32 0.08,-0.07 0.18,-0.11 0.3,-0.11l0.62 0c0.11,0 0.21,0.01 0.28,0.03 0.08,0.02 0.14,0.05 0.2,0.1 0.06,0.05 0.12,0.11 0.17,0.19 0.05,0.08 0.11,0.18 0.16,0.3l1.11 2.14c0.06,0.13 0.13,0.26 0.19,0.38 0.06,0.12 0.13,0.25 0.18,0.37 0.06,0.13 0.12,0.25 0.17,0.37 0.06,0.12 0.11,0.24 0.16,0.36l0 0c-0.01,-0.21 -0.02,-0.43 -0.02,-0.66 -0,-0.23 -0.01,-0.45 -0.01,-0.66l0 -2.75c0,-0.03 0.01,-0.06 0.03,-0.08 0.02,-0.02 0.05,-0.04 0.09,-0.06 0.04,-0.02 0.1,-0.03 0.16,-0.04 0.07,-0.01 0.16,-0.01 0.26,-0.01 0.1,0 0.18,0 0.25,0.01 0.07,0.01 0.12,0.02 0.16,0.04 0.04,0.02 0.06,0.04 0.08,0.06 0.02,0.02 0.02,0.05 0.02,0.08l0 5.26zm7.39 -2.58c0,0.48 -0.06,0.92 -0.18,1.3 -0.12,0.38 -0.29,0.71 -0.53,0.97 -0.23,0.27 -0.52,0.47 -0.86,0.61 -0.34,0.14 -0.74,0.21 -1.19,0.21 -0.44,0 -0.83,-0.06 -1.16,-0.18 -0.33,-0.12 -0.61,-0.3 -0.83,-0.54 -0.22,-0.24 -0.39,-0.55 -0.5,-0.93 -0.11,-0.38 -0.17,-0.82 -0.17,-1.34 0,-0.47 0.06,-0.9 0.18,-1.28 0.12,-0.38 0.29,-0.7 0.53,-0.96 0.23,-0.27 0.52,-0.47 0.86,-0.61 0.34,-0.14 0.74,-0.21 1.19,-0.21 0.43,0 0.81,0.06 1.14,0.18 0.33,0.12 0.61,0.3 0.83,0.54 0.22,0.24 0.39,0.55 0.5,0.92 0.11,0.37 0.17,0.81 0.17,1.32zm-1.22 0.06c0,-0.31 -0.02,-0.59 -0.07,-0.84 -0.05,-0.25 -0.13,-0.47 -0.24,-0.65 -0.11,-0.18 -0.26,-0.32 -0.45,-0.42 -0.19,-0.1 -0.42,-0.15 -0.71,-0.15 -0.28,0 -0.52,0.06 -0.71,0.16 -0.19,0.11 -0.35,0.26 -0.46,0.44 -0.12,0.18 -0.2,0.4 -0.25,0.64 -0.05,0.25 -0.07,0.51 -0.07,0.78 0,0.32 0.02,0.61 0.07,0.86 0.05,0.25 0.13,0.47 0.24,0.65 0.11,0.18 0.26,0.32 0.45,0.41 0.19,0.09 0.43,0.14 0.71,0.14 0.28,0 0.52,-0.05 0.71,-0.16 0.19,-0.11 0.35,-0.26 0.46,-0.44 0.12,-0.19 0.2,-0.4 0.25,-0.65 0.05,-0.25 0.07,-0.51 0.07,-0.79zm5.9 2.72c-0.01,0.05 -0.03,0.09 -0.06,0.12 -0.02,0.03 -0.06,0.06 -0.11,0.07 -0.05,0.02 -0.12,0.03 -0.22,0.03 -0.09,0 -0.21,0.01 -0.36,0.01 -0.12,0 -0.22,0 -0.3,-0 -0.08,-0 -0.16,-0.01 -0.21,-0.01 -0.06,-0.01 -0.11,-0.02 -0.14,-0.03 -0.04,-0.01 -0.07,-0.03 -0.09,-0.05 -0.02,-0.02 -0.04,-0.04 -0.06,-0.06 -0.01,-0.03 -0.03,-0.06 -0.04,-0.1l-1.7 -5.18c-0.03,-0.11 -0.06,-0.19 -0.06,-0.26 -0.01,-0.06 0.01,-0.11 0.04,-0.14 0.04,-0.03 0.1,-0.05 0.19,-0.06 0.09,-0.01 0.21,-0.01 0.37,-0.01 0.14,0 0.24,0 0.32,0.01 0.08,0.01 0.14,0.02 0.18,0.03 0.04,0.02 0.07,0.04 0.09,0.07 0.02,0.03 0.03,0.07 0.05,0.11l1.39 4.51 0 0 1.36 -4.49c0.01,-0.05 0.03,-0.09 0.04,-0.12 0.02,-0.03 0.05,-0.06 0.09,-0.08 0.04,-0.02 0.1,-0.03 0.18,-0.04 0.08,-0.01 0.19,-0.01 0.33,-0.01 0.14,0 0.24,0 0.32,0.01 0.08,0.01 0.13,0.03 0.16,0.06 0.03,0.04 0.04,0.08 0.03,0.15 -0.01,0.06 -0.03,0.15 -0.07,0.25l-1.71 5.19zm6.9 -0.26c0,0.09 -0,0.16 -0.01,0.22 -0.01,0.06 -0.02,0.11 -0.03,0.14 -0.01,0.04 -0.03,0.06 -0.06,0.08 -0.02,0.02 -0.05,0.02 -0.07,0.02l-2.87 0c-0.1,0 -0.18,-0.03 -0.24,-0.09 -0.07,-0.06 -0.1,-0.15 -0.1,-0.29l0 -5.1c0,-0.13 0.03,-0.23 0.1,-0.29 0.07,-0.06 0.15,-0.09 0.24,-0.09l2.85 0c0.03,0 0.05,0.01 0.07,0.02 0.02,0.02 0.04,0.04 0.05,0.08 0.01,0.04 0.03,0.09 0.03,0.14 0.01,0.06 0.01,0.13 0.01,0.23 0,0.09 -0,0.16 -0.01,0.22 -0.01,0.06 -0.02,0.11 -0.03,0.14 -0.01,0.04 -0.03,0.06 -0.05,0.08 -0.02,0.02 -0.05,0.02 -0.07,0.02l-2.04 0 0 1.42 1.72 0c0.03,0 0.05,0.01 0.07,0.03 0.02,0.02 0.04,0.04 0.06,0.08 0.01,0.03 0.03,0.08 0.03,0.14 0.01,0.06 0.01,0.13 0.01,0.21 0,0.09 -0,0.16 -0.01,0.22 -0.01,0.06 -0.02,0.1 -0.03,0.14 -0.02,0.04 -0.03,0.06 -0.06,0.07 -0.02,0.02 -0.05,0.02 -0.07,0.02l-1.72 0 0 1.65 2.05 0c0.03,0 0.05,0.01 0.07,0.02 0.02,0.02 0.04,0.04 0.06,0.08 0.01,0.04 0.03,0.08 0.03,0.14 0.01,0.06 0.01,0.13 0.01,0.22zm5.18 -0.03c0,0.09 -0,0.17 -0.01,0.23 -0.01,0.06 -0.02,0.11 -0.03,0.15 -0.01,0.04 -0.03,0.07 -0.06,0.09 -0.02,0.02 -0.05,0.03 -0.08,0.03l-2.62 0c-0.1,0 -0.18,-0.03 -0.24,-0.09 -0.07,-0.06 -0.1,-0.15 -0.1,-0.29l0 -5.31c0,-0.03 0.01,-0.06 0.03,-0.08 0.02,-0.02 0.05,-0.04 0.09,-0.06 0.04,-0.02 0.1,-0.03 0.18,-0.04 0.08,-0.01 0.17,-0.01 0.28,-0.01 0.11,0 0.21,0 0.28,0.01 0.07,0.01 0.13,0.02 0.18,0.04 0.04,0.02 0.08,0.04 0.09,0.06 0.02,0.02 0.03,0.05 0.03,0.08l0 4.7 1.79 0c0.03,0 0.06,0.01 0.08,0.02 0.02,0.02 0.04,0.04 0.06,0.08 0.02,0.04 0.03,0.09 0.03,0.15 0.01,0.06 0.01,0.14 0.01,0.23zm4.83 -4.86c0,0.09 -0,0.16 -0.01,0.23 -0.01,0.06 -0.02,0.11 -0.03,0.15 -0.01,0.04 -0.03,0.07 -0.06,0.08 -0.02,0.02 -0.05,0.03 -0.07,0.03l-1.43 0 0 4.71c0,0.03 -0.01,0.06 -0.03,0.08 -0.02,0.02 -0.05,0.04 -0.09,0.06 -0.04,0.01 -0.1,0.03 -0.18,0.04 -0.08,0.01 -0.17,0.01 -0.28,0.01 -0.11,0 -0.2,-0 -0.28,-0.01 -0.08,-0.01 -0.14,-0.02 -0.18,-0.04 -0.04,-0.02 -0.08,-0.04 -0.1,-0.06 -0.02,-0.02 -0.03,-0.05 -0.03,-0.08l0 -4.71 -1.43 0c-0.03,0 -0.05,-0.01 -0.08,-0.03 -0.02,-0.02 -0.04,-0.04 -0.05,-0.08 -0.01,-0.04 -0.03,-0.09 -0.03,-0.15 -0.01,-0.06 -0.01,-0.14 -0.01,-0.23 0,-0.09 0,-0.17 0.01,-0.23 0.01,-0.06 0.02,-0.11 0.03,-0.15 0.01,-0.04 0.03,-0.06 0.05,-0.08 0.02,-0.02 0.05,-0.02 0.08,-0.02l4.02 0c0.03,0 0.05,0.01 0.07,0.02 0.02,0.02 0.04,0.04 0.06,0.08 0.02,0.04 0.03,0.09 0.03,0.15 0.01,0.06 0.01,0.14 0.01,0.23zm4 3.14l0 2.06c0,0.03 -0.01,0.06 -0.03,0.08 -0.02,0.02 -0.05,0.04 -0.09,0.06 -0.04,0.01 -0.1,0.03 -0.18,0.04 -0.08,0.01 -0.17,0.01 -0.28,0.01 -0.11,0 -0.21,-0 -0.28,-0.01 -0.07,-0.01 -0.13,-0.02 -0.18,-0.04 -0.05,-0.02 -0.08,-0.04 -0.1,-0.06 -0.02,-0.02 -0.03,-0.05 -0.03,-0.08l0 -2.06 -1.56 -3.19c-0.06,-0.11 -0.09,-0.2 -0.11,-0.26 -0.02,-0.06 -0.01,-0.11 0.03,-0.14 0.03,-0.03 0.1,-0.05 0.19,-0.06 0.09,-0.01 0.22,-0.01 0.38,-0.01 0.14,0 0.24,0 0.32,0.01 0.08,0.01 0.14,0.02 0.19,0.03 0.05,0.02 0.08,0.04 0.1,0.06 0.02,0.03 0.04,0.06 0.06,0.11l0.64 1.44c0.06,0.14 0.12,0.29 0.18,0.44 0.06,0.15 0.12,0.31 0.18,0.48l0.01 0c0.06,-0.16 0.11,-0.32 0.17,-0.48 0.06,-0.15 0.12,-0.3 0.17,-0.44l0.63 -1.43c0.02,-0.05 0.03,-0.09 0.06,-0.12 0.02,-0.03 0.05,-0.05 0.1,-0.07 0.04,-0.02 0.1,-0.03 0.18,-0.04 0.08,-0.01 0.18,-0.01 0.3,-0.01 0.17,0 0.3,0 0.39,0.01 0.09,0.01 0.16,0.03 0.19,0.06 0.03,0.03 0.04,0.08 0.02,0.14 -0.02,0.06 -0.05,0.15 -0.11,0.26l-1.56 3.19zm9.4 1.34c0,0.08 -0,0.14 -0.01,0.19 -0,0.05 -0.01,0.1 -0.02,0.14 -0.01,0.04 -0.02,0.07 -0.04,0.1 -0.01,0.03 -0.04,0.06 -0.07,0.09 -0.03,0.03 -0.1,0.08 -0.19,0.13 -0.09,0.05 -0.21,0.11 -0.34,0.15 -0.13,0.05 -0.29,0.09 -0.46,0.12 -0.17,0.03 -0.36,0.05 -0.56,0.05 -0.39,0 -0.74,-0.06 -1.06,-0.18 -0.31,-0.12 -0.58,-0.31 -0.8,-0.55 -0.22,-0.25 -0.39,-0.55 -0.51,-0.92 -0.12,-0.37 -0.18,-0.79 -0.18,-1.28 0,-0.5 0.06,-0.94 0.19,-1.32 0.13,-0.39 0.31,-0.71 0.54,-0.97 0.23,-0.26 0.51,-0.46 0.84,-0.6 0.32,-0.14 0.68,-0.2 1.07,-0.2 0.16,0 0.31,0.01 0.46,0.04 0.15,0.03 0.28,0.06 0.41,0.11 0.12,0.04 0.24,0.09 0.34,0.15 0.1,0.06 0.17,0.11 0.21,0.15 0.04,0.04 0.07,0.08 0.08,0.1 0.02,0.03 0.03,0.06 0.03,0.1 0.01,0.04 0.02,0.09 0.02,0.15 0,0.06 0.01,0.13 0.01,0.21 0,0.09 -0,0.17 -0.01,0.23 -0.01,0.06 -0.02,0.11 -0.03,0.15 -0.01,0.04 -0.03,0.07 -0.05,0.09 -0.02,0.02 -0.05,0.03 -0.07,0.03 -0.04,0 -0.1,-0.03 -0.17,-0.08 -0.07,-0.05 -0.16,-0.11 -0.26,-0.18 -0.11,-0.06 -0.23,-0.12 -0.38,-0.18 -0.15,-0.05 -0.32,-0.08 -0.53,-0.08 -0.23,0 -0.43,0.05 -0.61,0.14 -0.18,0.1 -0.33,0.23 -0.45,0.41 -0.13,0.18 -0.22,0.39 -0.28,0.64 -0.06,0.25 -0.1,0.53 -0.1,0.84 0,0.34 0.03,0.64 0.1,0.89 0.07,0.25 0.17,0.46 0.3,0.62 0.13,0.16 0.28,0.28 0.46,0.36 0.18,0.08 0.38,0.12 0.61,0.12 0.2,0 0.38,-0.02 0.53,-0.07 0.15,-0.05 0.28,-0.11 0.38,-0.16 0.11,-0.06 0.2,-0.11 0.26,-0.16 0.07,-0.05 0.12,-0.07 0.16,-0.07 0.03,0 0.05,0.01 0.07,0.02 0.02,0.01 0.03,0.04 0.05,0.07 0.01,0.04 0.02,0.09 0.03,0.15 0.01,0.07 0.01,0.15 0.01,0.26zm6.92 -2.11c0,0.48 -0.06,0.92 -0.18,1.3 -0.12,0.38 -0.29,0.71 -0.53,0.97 -0.23,0.27 -0.52,0.47 -0.86,0.61 -0.34,0.14 -0.74,0.21 -1.19,0.21 -0.44,0 -0.83,-0.06 -1.16,-0.18 -0.33,-0.12 -0.61,-0.3 -0.83,-0.54 -0.22,-0.24 -0.39,-0.55 -0.5,-0.93 -0.11,-0.38 -0.17,-0.82 -0.17,-1.34 0,-0.47 0.06,-0.9 0.18,-1.28 0.12,-0.38 0.29,-0.7 0.53,-0.96 0.23,-0.27 0.52,-0.47 0.86,-0.61 0.34,-0.14 0.74,-0.21 1.19,-0.21 0.43,0 0.81,0.06 1.14,0.18 0.33,0.12 0.61,0.3 0.83,0.54 0.22,0.24 0.39,0.55 0.5,0.92 0.11,0.37 0.17,0.81 0.17,1.32zm-1.22 0.06c0,-0.31 -0.02,-0.59 -0.07,-0.84 -0.05,-0.25 -0.13,-0.47 -0.24,-0.65 -0.11,-0.18 -0.26,-0.32 -0.45,-0.42 -0.19,-0.1 -0.42,-0.15 -0.7,-0.15 -0.28,0 -0.52,0.06 -0.71,0.16 -0.19,0.11 -0.35,0.26 -0.46,0.44 -0.12,0.18 -0.2,0.4 -0.25,0.64 -0.05,0.25 -0.07,0.51 -0.07,0.78 0,0.32 0.02,0.61 0.07,0.86 0.05,0.25 0.13,0.47 0.24,0.65 0.11,0.18 0.26,0.32 0.45,0.41 0.19,0.09 0.43,0.14 0.71,0.14 0.28,0 0.52,-0.05 0.71,-0.16 0.19,-0.11 0.35,-0.26 0.46,-0.44 0.12,-0.19 0.2,-0.4 0.25,-0.65 0.05,-0.25 0.07,-0.51 0.07,-0.79zm7.92 2.52c0,0.07 -0.01,0.13 -0.04,0.19 -0.02,0.05 -0.06,0.1 -0.1,0.14 -0.04,0.04 -0.09,0.06 -0.14,0.08 -0.06,0.02 -0.11,0.02 -0.17,0.02l-0.5 0c-0.1,0 -0.19,-0.01 -0.27,-0.03 -0.07,-0.02 -0.14,-0.06 -0.21,-0.12 -0.06,-0.06 -0.12,-0.13 -0.18,-0.23 -0.06,-0.09 -0.12,-0.22 -0.2,-0.37l-1.42 -2.73c-0.08,-0.16 -0.17,-0.34 -0.25,-0.53 -0.09,-0.19 -0.16,-0.37 -0.23,-0.55l-0.01 0c0.01,0.22 0.02,0.43 0.03,0.65 0.01,0.21 0.01,0.44 0.01,0.67l0 3.06c0,0.03 -0.01,0.06 -0.02,0.08 -0.02,0.02 -0.05,0.04 -0.08,0.06 -0.04,0.02 -0.09,0.03 -0.16,0.04 -0.07,0.01 -0.16,0.01 -0.26,0.01 -0.1,0 -0.19,-0 -0.26,-0.01 -0.07,-0.01 -0.12,-0.02 -0.16,-0.04 -0.04,-0.02 -0.07,-0.04 -0.08,-0.06 -0.01,-0.02 -0.02,-0.05 -0.02,-0.08l0 -5.26c0,-0.14 0.04,-0.25 0.12,-0.32 0.08,-0.07 0.18,-0.11 0.3,-0.11l0.62 0c0.11,0 0.21,0.01 0.28,0.03 0.08,0.02 0.14,0.05 0.2,0.1 0.06,0.05 0.12,0.11 0.17,0.19 0.05,0.08 0.11,0.18 0.16,0.3l1.11 2.14c0.06,0.13 0.13,0.26 0.19,0.38 0.06,0.12 0.13,0.25 0.18,0.37 0.06,0.13 0.12,0.25 0.17,0.37 0.06,0.12 0.11,0.24 0.16,0.36l0 0c-0.01,-0.21 -0.02,-0.43 -0.02,-0.66 -0,-0.23 -0.01,-0.45 -0.01,-0.66l0 -2.75c0,-0.03 0.01,-0.06 0.03,-0.08 0.02,-0.02 0.05,-0.04 0.09,-0.06 0.04,-0.02 0.1,-0.03 0.16,-0.04 0.07,-0.01 0.16,-0.01 0.26,-0.01 0.1,0 0.19,0 0.25,0.01 0.07,0.01 0.12,0.02 0.16,0.04 0.04,0.02 0.06,0.04 0.08,0.06 0.01,0.02 0.02,0.05 0.02,0.08l0 5.26zm7 -2.59c0,0.54 -0.07,0.99 -0.21,1.38 -0.14,0.38 -0.33,0.69 -0.59,0.93 -0.26,0.24 -0.57,0.42 -0.93,0.53 -0.37,0.11 -0.8,0.17 -1.31,0.17l-1.36 0c-0.1,0 -0.18,-0.03 -0.25,-0.09 -0.07,-0.06 -0.1,-0.15 -0.1,-0.29l0 -5.1c0,-0.13 0.03,-0.23 0.1,-0.29 0.07,-0.06 0.15,-0.09 0.25,-0.09l1.46 0c0.51,0 0.94,0.06 1.3,0.18 0.36,0.12 0.65,0.3 0.9,0.54 0.24,0.24 0.43,0.54 0.55,0.89 0.13,0.35 0.19,0.76 0.19,1.22zm-1.2 0.04c0,-0.28 -0.03,-0.53 -0.09,-0.77 -0.06,-0.24 -0.16,-0.44 -0.3,-0.62 -0.14,-0.17 -0.32,-0.31 -0.54,-0.41 -0.22,-0.1 -0.51,-0.15 -0.86,-0.15l-0.59 0 0 3.97 0.6 0c0.32,0 0.59,-0.04 0.8,-0.13 0.22,-0.08 0.4,-0.21 0.55,-0.38 0.14,-0.17 0.25,-0.38 0.33,-0.63 0.07,-0.25 0.11,-0.55 0.11,-0.88zm8.3 -0.02c0,0.48 -0.06,0.92 -0.18,1.3 -0.12,0.38 -0.29,0.71 -0.53,0.97 -0.23,0.27 -0.52,0.47 -0.86,0.61 -0.34,0.14 -0.74,0.21 -1.19,0.21 -0.44,0 -0.83,-0.06 -1.16,-0.18 -0.33,-0.12 -0.61,-0.3 -0.83,-0.54 -0.22,-0.24 -0.39,-0.55 -0.5,-0.93 -0.11,-0.38 -0.17,-0.82 -0.17,-1.34 0,-0.47 0.06,-0.9 0.18,-1.28 0.12,-0.38 0.29,-0.7 0.53,-0.96 0.23,-0.27 0.52,-0.47 0.86,-0.61 0.34,-0.14 0.74,-0.21 1.19,-0.21 0.43,0 0.81,0.06 1.14,0.18 0.33,0.12 0.61,0.3 0.83,0.54 0.22,0.24 0.39,0.55 0.5,0.92 0.11,0.37 0.17,0.81 0.17,1.32zm-1.22 0.06c0,-0.31 -0.02,-0.59 -0.07,-0.84 -0.05,-0.25 -0.13,-0.47 -0.24,-0.65 -0.11,-0.18 -0.26,-0.32 -0.45,-0.42 -0.19,-0.1 -0.42,-0.15 -0.71,-0.15 -0.28,0 -0.52,0.06 -0.71,0.16 -0.19,0.11 -0.35,0.26 -0.46,0.44 -0.12,0.18 -0.2,0.4 -0.25,0.64 -0.05,0.25 -0.07,0.51 -0.07,0.78 0,0.32 0.02,0.61 0.07,0.86 0.05,0.25 0.13,0.47 0.24,0.65 0.11,0.18 0.26,0.32 0.45,0.41 0.19,0.09 0.43,0.14 0.71,0.14 0.28,0 0.52,-0.05 0.71,-0.16 0.19,-0.11 0.35,-0.26 0.46,-0.44 0.12,-0.19 0.2,-0.4 0.25,-0.65 0.05,-0.25 0.07,-0.51 0.07,-0.79zm6.6 1.18c0,0.31 -0.06,0.58 -0.17,0.81 -0.11,0.23 -0.26,0.42 -0.45,0.58 -0.19,0.15 -0.42,0.27 -0.67,0.35 -0.26,0.08 -0.53,0.12 -0.82,0.12 -0.2,0 -0.38,-0.02 -0.55,-0.05 -0.17,-0.03 -0.32,-0.07 -0.45,-0.12 -0.13,-0.05 -0.24,-0.1 -0.33,-0.15 -0.09,-0.05 -0.15,-0.1 -0.19,-0.14 -0.04,-0.04 -0.06,-0.1 -0.08,-0.17 -0.02,-0.07 -0.02,-0.18 -0.02,-0.32 0,-0.09 0,-0.17 0.01,-0.23 0.01,-0.06 0.01,-0.11 0.03,-0.15 0.01,-0.04 0.03,-0.07 0.05,-0.08 0.02,-0.02 0.05,-0.02 0.08,-0.02 0.04,0 0.1,0.02 0.17,0.08 0.08,0.05 0.17,0.1 0.29,0.16 0.12,0.06 0.26,0.12 0.42,0.16 0.16,0.05 0.35,0.08 0.57,0.08 0.14,0 0.27,-0.02 0.38,-0.05 0.11,-0.04 0.21,-0.08 0.29,-0.15 0.08,-0.06 0.14,-0.14 0.18,-0.23 0.04,-0.09 0.06,-0.2 0.06,-0.31 0,-0.13 -0.03,-0.25 -0.11,-0.34 -0.07,-0.1 -0.16,-0.18 -0.28,-0.25 -0.11,-0.07 -0.24,-0.14 -0.39,-0.21 -0.14,-0.06 -0.29,-0.13 -0.45,-0.21 -0.15,-0.07 -0.3,-0.15 -0.45,-0.25 -0.14,-0.09 -0.27,-0.2 -0.39,-0.33 -0.11,-0.13 -0.21,-0.28 -0.28,-0.45 -0.07,-0.17 -0.11,-0.38 -0.11,-0.63 0,-0.28 0.05,-0.53 0.15,-0.74 0.1,-0.21 0.24,-0.39 0.41,-0.53 0.17,-0.14 0.38,-0.25 0.61,-0.31 0.23,-0.07 0.48,-0.1 0.74,-0.1 0.13,0 0.27,0.01 0.4,0.03 0.14,0.02 0.26,0.05 0.38,0.09 0.12,0.04 0.22,0.08 0.31,0.12 0.09,0.05 0.15,0.08 0.18,0.11 0.03,0.03 0.05,0.06 0.06,0.08 0.01,0.02 0.02,0.05 0.03,0.09 0.01,0.03 0.01,0.08 0.02,0.13 0,0.05 0,0.12 0,0.2 0,0.09 -0,0.16 -0.01,0.22 -0,0.06 -0.01,0.11 -0.02,0.15 -0.01,0.04 -0.03,0.07 -0.04,0.08 -0.02,0.02 -0.04,0.03 -0.08,0.03 -0.03,0 -0.08,-0.02 -0.15,-0.06 -0.07,-0.04 -0.16,-0.09 -0.26,-0.14 -0.1,-0.05 -0.22,-0.09 -0.36,-0.13 -0.14,-0.04 -0.28,-0.06 -0.45,-0.06 -0.13,0 -0.24,0.02 -0.33,0.05 -0.09,0.03 -0.17,0.08 -0.23,0.13 -0.06,0.06 -0.11,0.12 -0.14,0.2 -0.03,0.08 -0.05,0.16 -0.05,0.25 0,0.13 0.03,0.24 0.1,0.34 0.07,0.1 0.16,0.18 0.28,0.25 0.12,0.07 0.25,0.14 0.4,0.21 0.15,0.06 0.3,0.13 0.45,0.21 0.15,0.07 0.3,0.15 0.45,0.25 0.15,0.09 0.28,0.2 0.39,0.33 0.11,0.13 0.21,0.28 0.28,0.45 0.07,0.17 0.11,0.38 0.11,0.61z"/>
  </g>
 </g>
</svg>
